<?xml version="1.0" encoding="utf-8" standalone="no"?>
<!DOCTYPE svg PUBLIC "-//W3C//DTD SVG 1.1//EN"
  "http://www.w3.org/Graphics/SVG/1.1/DTD/svg11.dtd">
<svg xmlns:xlink="http://www.w3.org/1999/xlink" width="460.8pt" height="345.6pt" viewBox="0 0 460.8 345.6" xmlns="http://www.w3.org/2000/svg" version="1.1">
 <metadata>
  <rdf:RDF xmlns:dc="http://purl.org/dc/elements/1.1/" xmlns:cc="http://creativecommons.org/ns#" xmlns:rdf="http://www.w3.org/1999/02/22-rdf-syntax-ns#">
   <cc:Work>
    <dc:type rdf:resource="http://purl.org/dc/dcmitype/StillImage"/>
    <dc:date>2025-08-30T23:00:51.579148</dc:date>
    <dc:format>image/svg+xml</dc:format>
    <dc:creator>
     <cc:Agent>
      <dc:title>Matplotlib v3.10.0, https://matplotlib.org/</dc:title>
     </cc:Agent>
    </dc:creator>
   </cc:Work>
  </rdf:RDF>
 </metadata>
 <defs>
  <style type="text/css">*{stroke-linejoin: round; stroke-linecap: butt}</style>
 </defs>
 <g id="figure_1">
  <g id="patch_1">
   <path d="M 0 345.6 
L 460.8 345.6 
L 460.8 0 
L 0 0 
z
" style="fill: #ffffff"/>
  </g>
  <g id="axes_1">
   <g id="patch_2">
    <path d="M 57.6 307.584 
L 414.72 307.584 
L 414.72 41.472 
L 57.6 41.472 
z
" style="fill: #ffffff"/>
   </g>
   <g id="matplotlib.axis_1">
    <g id="xtick_1">
     <g id="line2d_1">
      <path d="M 73.832727 307.584 
L 73.832727 41.472 
" clip-path="url(#p19ea308ac4)" style="fill: none; stroke: #cccccc; stroke-width: 0.8; stroke-linecap: round"/>
     </g>
     <g id="text_1">
      <!-- $\mathdefault{1.0}$ -->
      <g style="fill: #262626" transform="translate(68.791641 321.972283) scale(0.088 -0.088)">
       <defs>
        <path id="LibertinusT1Math-31" d="M 1843 793 
L 1843 3014 
C 1843 3398 1850 3789 1862 3872 
C 1862 3904 1850 3904 1824 3904 
C 1472 3686 1133 3526 570 3264 
C 582 3193 608 3129 666 3091 
C 960 3212 1101 3251 1222 3251 
C 1331 3251 1350 3097 1350 2880 
L 1350 793 
C 1350 262 1178 230 730 211 
C 691 172 691 38 730 0 
C 1043 6 1274 12 1619 12 
C 1926 12 2080 6 2400 0 
C 2438 38 2438 172 2400 211 
C 1952 230 1843 262 1843 793 
z
" transform="scale(0.015625)"/>
        <path id="LibertinusT1Math-3a" d="M 365 275 
C 365 89 518 -64 704 -64 
C 890 -64 1043 89 1043 275 
C 1043 460 890 614 704 614 
C 518 614 365 460 365 275 
z
" transform="scale(0.015625)"/>
        <path id="LibertinusT1Math-30" d="M 1459 -64 
C 1952 -64 2701 435 2701 1939 
C 2701 2572 2547 3116 2266 3488 
C 2099 3711 1830 3904 1485 3904 
C 851 3904 250 3148 250 1881 
C 250 1196 461 556 813 204 
C 992 25 1210 -64 1459 -64 
z
M 1485 3679 
C 1594 3679 1696 3641 1773 3571 
C 1971 3405 2144 2918 2144 2060 
C 2144 1472 2125 1068 2035 742 
C 1894 217 1581 160 1466 160 
C 870 160 806 1254 806 1811 
C 806 3385 1197 3679 1485 3679 
z
" transform="scale(0.015625)"/>
       </defs>
       <use xlink:href="#LibertinusT1Math-31" transform="scale(0.996264)"/>
       <use xlink:href="#LibertinusT1Math-3a" transform="translate(46.326292 0) scale(0.996264)"/>
       <use xlink:href="#LibertinusT1Math-30" transform="translate(68.244115 0) scale(0.996264)"/>
      </g>
     </g>
    </g>
    <g id="xtick_2">
     <g id="line2d_2">
      <path d="M 127.941818 307.584 
L 127.941818 41.472 
" clip-path="url(#p19ea308ac4)" style="fill: none; stroke: #cccccc; stroke-width: 0.8; stroke-linecap: round"/>
     </g>
     <g id="text_2">
      <!-- $\mathdefault{1.5}$ -->
      <g style="fill: #262626" transform="translate(122.900732 321.972283) scale(0.088 -0.088)">
       <defs>
        <path id="LibertinusT1Math-35" d="M 2042 1209 
C 2042 605 1722 160 1338 160 
C 1094 160 1011 318 915 446 
C 832 554 723 649 589 649 
C 467 649 346 541 346 414 
C 346 153 890 -64 1254 -64 
C 2048 -64 2611 522 2611 1323 
C 2611 1940 2182 2496 1466 2496 
C 1190 2496 954 2438 838 2393 
L 966 3468 
C 1203 3443 1408 3411 1715 3411 
C 1907 3411 2125 3423 2387 3449 
L 2490 3904 
L 2445 3929 
C 2080 3872 1734 3840 1395 3840 
C 1158 3840 928 3852 704 3872 
L 486 2023 
C 826 2150 1069 2176 1299 2176 
C 1715 2176 2042 1902 2042 1209 
z
" transform="scale(0.015625)"/>
       </defs>
       <use xlink:href="#LibertinusT1Math-31" transform="scale(0.996264)"/>
       <use xlink:href="#LibertinusT1Math-3a" transform="translate(46.326292 0) scale(0.996264)"/>
       <use xlink:href="#LibertinusT1Math-35" transform="translate(68.244115 0) scale(0.996264)"/>
      </g>
     </g>
    </g>
    <g id="xtick_3">
     <g id="line2d_3">
      <path d="M 182.050909 307.584 
L 182.050909 41.472 
" clip-path="url(#p19ea308ac4)" style="fill: none; stroke: #cccccc; stroke-width: 0.8; stroke-linecap: round"/>
     </g>
     <g id="text_3">
      <!-- $\mathdefault{2.0}$ -->
      <g style="fill: #262626" transform="translate(177.009823 321.972283) scale(0.088 -0.088)">
       <defs>
        <path id="LibertinusT1Math-32" d="M 390 2995 
C 390 2860 512 2745 646 2745 
C 755 2745 947 2860 947 3001 
C 947 3052 934 3091 922 3136 
C 909 3180 870 3238 870 3289 
C 870 3449 1037 3679 1504 3679 
C 1734 3679 2061 3520 2061 2905 
C 2061 2496 1914 2163 1536 1779 
L 1062 1312 
C 435 672 333 364 333 -13 
C 333 -13 659 0 864 0 
L 1984 0 
C 2189 0 2483 -13 2483 -13 
C 2566 326 2630 806 2637 998 
C 2598 1030 2515 1043 2451 1030 
C 2342 576 2234 416 2003 416 
L 864 416 
C 864 723 1306 1158 1338 1190 
L 1984 1811 
C 2349 2163 2624 2444 2624 2931 
C 2624 3622 2061 3904 1542 3904 
C 832 3904 390 3379 390 2995 
z
" transform="scale(0.015625)"/>
       </defs>
       <use xlink:href="#LibertinusT1Math-32" transform="scale(0.996264)"/>
       <use xlink:href="#LibertinusT1Math-3a" transform="translate(46.326292 0) scale(0.996264)"/>
       <use xlink:href="#LibertinusT1Math-30" transform="translate(68.244115 0) scale(0.996264)"/>
      </g>
     </g>
    </g>
    <g id="xtick_4">
     <g id="line2d_4">
      <path d="M 236.16 307.584 
L 236.16 41.472 
" clip-path="url(#p19ea308ac4)" style="fill: none; stroke: #cccccc; stroke-width: 0.8; stroke-linecap: round"/>
     </g>
     <g id="text_4">
      <!-- $\mathdefault{2.5}$ -->
      <g style="fill: #262626" transform="translate(231.118914 321.972283) scale(0.088 -0.088)">
       <use xlink:href="#LibertinusT1Math-32" transform="scale(0.996264)"/>
       <use xlink:href="#LibertinusT1Math-3a" transform="translate(46.326292 0) scale(0.996264)"/>
       <use xlink:href="#LibertinusT1Math-35" transform="translate(68.244115 0) scale(0.996264)"/>
      </g>
     </g>
    </g>
    <g id="xtick_5">
     <g id="line2d_5">
      <path d="M 290.269091 307.584 
L 290.269091 41.472 
" clip-path="url(#p19ea308ac4)" style="fill: none; stroke: #cccccc; stroke-width: 0.8; stroke-linecap: round"/>
     </g>
     <g id="text_5">
      <!-- $\mathdefault{3.0}$ -->
      <g style="fill: #262626" transform="translate(285.228005 321.972283) scale(0.088 -0.088)">
       <defs>
        <path id="LibertinusT1Math-33" d="M 1376 3679 
C 1651 3679 1907 3513 1907 3104 
C 1907 2784 1536 2291 902 2201 
L 934 1996 
C 1043 2009 1158 2009 1242 2009 
C 1606 2009 2080 1907 2080 1184 
C 2080 332 1510 160 1286 160 
C 960 160 902 307 826 422 
C 762 512 678 588 550 588 
C 416 588 282 467 282 364 
C 282 108 819 -64 1203 -64 
C 1965 -64 2643 428 2643 1273 
C 2643 1971 2118 2220 1741 2284 
L 1734 2297 
C 2259 2547 2406 2809 2406 3148 
C 2406 3341 2362 3494 2208 3654 
C 2067 3795 1843 3904 1510 3904 
C 570 3904 301 3289 301 3078 
C 301 2988 365 2860 518 2860 
C 742 2860 768 3072 768 3193 
C 768 3603 1210 3679 1376 3679 
z
" transform="scale(0.015625)"/>
       </defs>
       <use xlink:href="#LibertinusT1Math-33" transform="scale(0.996264)"/>
       <use xlink:href="#LibertinusT1Math-3a" transform="translate(46.326292 0) scale(0.996264)"/>
       <use xlink:href="#LibertinusT1Math-30" transform="translate(68.244115 0) scale(0.996264)"/>
      </g>
     </g>
    </g>
    <g id="xtick_6">
     <g id="line2d_6">
      <path d="M 344.378182 307.584 
L 344.378182 41.472 
" clip-path="url(#p19ea308ac4)" style="fill: none; stroke: #cccccc; stroke-width: 0.8; stroke-linecap: round"/>
     </g>
     <g id="text_6">
      <!-- $\mathdefault{3.5}$ -->
      <g style="fill: #262626" transform="translate(339.337096 321.972283) scale(0.088 -0.088)">
       <use xlink:href="#LibertinusT1Math-33" transform="scale(0.996264)"/>
       <use xlink:href="#LibertinusT1Math-3a" transform="translate(46.326292 0) scale(0.996264)"/>
       <use xlink:href="#LibertinusT1Math-35" transform="translate(68.244115 0) scale(0.996264)"/>
      </g>
     </g>
    </g>
    <g id="xtick_7">
     <g id="line2d_7">
      <path d="M 398.487273 307.584 
L 398.487273 41.472 
" clip-path="url(#p19ea308ac4)" style="fill: none; stroke: #cccccc; stroke-width: 0.8; stroke-linecap: round"/>
     </g>
     <g id="text_7">
      <!-- $\mathdefault{4.0}$ -->
      <g style="fill: #262626" transform="translate(393.446187 321.972283) scale(0.088 -0.088)">
       <defs>
        <path id="LibertinusT1Math-34" d="M 2752 1408 
L 2221 1408 
L 2221 3272 
C 2221 3591 2221 3840 2234 3891 
L 2221 3904 
L 2016 3904 
C 1971 3904 1939 3865 1914 3833 
C 1510 3342 768 2288 179 1375 
C 198 1279 237 1107 429 1107 
L 1734 1107 
L 1734 522 
C 1734 230 1491 230 1216 211 
C 1178 172 1178 38 1216 0 
C 1421 6 1677 12 1971 12 
C 2221 12 2464 6 2669 0 
C 2707 38 2707 172 2669 211 
C 2355 236 2221 223 2221 522 
L 2221 1107 
L 2662 1107 
C 2752 1107 2848 1228 2848 1305 
C 2848 1369 2822 1408 2752 1408 
z
M 1734 3246 
L 1734 1408 
L 512 1408 
C 838 1931 1293 2646 1734 3246 
z
" transform="scale(0.015625)"/>
       </defs>
       <use xlink:href="#LibertinusT1Math-34" transform="scale(0.996264)"/>
       <use xlink:href="#LibertinusT1Math-3a" transform="translate(46.326292 0) scale(0.996264)"/>
       <use xlink:href="#LibertinusT1Math-30" transform="translate(68.244115 0) scale(0.996264)"/>
      </g>
     </g>
    </g>
    <g id="text_8">
     <!-- $X$ -->
     <g style="fill: #262626" transform="translate(232.932107 334.318761) scale(0.096 -0.096)">
      <defs>
       <path id="LibertinusT1Math-58" d="M 960 4019 
C 954 3993 992 3987 1050 3974 
C 1152 3955 1331 3904 1510 3532 
L 2138 2217 
C 2176 2160 2202 2115 2202 2064 
C 2202 1987 2157 1942 2099 1878 
L 1024 679 
C 851 486 589 204 230 185 
C 192 185 160 172 154 140 
L 128 12 
L 128 0 
C 314 6 461 12 640 12 
C 883 12 1043 6 1331 0 
L 1357 12 
L 1382 140 
C 1382 160 1376 179 1344 185 
L 1229 198 
C 1120 211 1075 243 1075 294 
C 1075 352 1133 422 1203 506 
L 2240 1666 
C 2291 1717 2330 1756 2342 1756 
C 2368 1756 2394 1737 2419 1685 
L 2995 480 
C 3040 390 3072 333 3072 294 
C 3072 230 3014 211 2867 198 
L 2739 185 
C 2714 185 2694 166 2688 140 
C 2688 140 2662 12 2662 12 
C 2662 12 2688 0 2688 0 
C 2976 6 3315 12 3456 12 
C 3597 12 3846 6 4096 0 
L 4109 12 
L 4134 140 
C 4134 160 4128 185 4096 185 
C 3827 204 3667 416 3546 666 
L 2854 2012 
C 2816 2083 2790 2141 2790 2192 
C 2790 2275 2842 2333 2918 2416 
L 3942 3551 
C 4154 3782 4326 3961 4698 3974 
C 4749 3974 4762 3999 4762 4019 
L 4787 4147 
L 4774 4160 
C 4525 4153 4314 4147 4173 4147 
C 4032 4147 3821 4153 3571 4160 
L 3558 4147 
L 3533 4019 
C 3526 3987 3546 3974 3571 3974 
L 3750 3961 
C 3834 3955 3866 3929 3866 3891 
C 3866 3846 3808 3769 3725 3679 
L 2714 2557 
C 2669 2506 2643 2480 2624 2480 
C 2611 2480 2586 2506 2560 2551 
L 2048 3679 
C 2010 3756 1984 3820 1984 3865 
C 1984 3923 2029 3955 2138 3961 
L 2342 3974 
C 2355 3974 2374 3987 2381 4019 
L 2394 4140 
C 2387 4140 2394 4160 2394 4160 
C 2106 4153 1786 4147 1638 4147 
C 1491 4147 1254 4153 1011 4160 
L 986 4140 
L 960 4019 
z
" transform="scale(0.015625)"/>
      </defs>
      <use xlink:href="#LibertinusT1Math-58" transform="scale(0.996264)"/>
     </g>
    </g>
   </g>
   <g id="matplotlib.axis_2">
    <g id="ytick_1">
     <g id="line2d_8">
      <path d="M 57.6 295.488 
L 414.72 295.488 
" clip-path="url(#p19ea308ac4)" style="fill: none; stroke: #cccccc; stroke-width: 0.8; stroke-linecap: round"/>
     </g>
     <g id="text_9">
      <!-- $\mathdefault{0.00}$ -->
      <g style="fill: #262626" transform="translate(35.141121 298.532142) scale(0.088 -0.088)">
       <use xlink:href="#LibertinusT1Math-30" transform="scale(0.996264)"/>
       <use xlink:href="#LibertinusT1Math-3a" transform="translate(46.326292 0) scale(0.996264)"/>
       <use xlink:href="#LibertinusT1Math-30" transform="translate(68.244115 0) scale(0.996264)"/>
       <use xlink:href="#LibertinusT1Math-30" transform="translate(114.570407 0) scale(0.996264)"/>
      </g>
     </g>
    </g>
    <g id="ytick_2">
     <g id="line2d_9">
      <path d="M 57.6 265.248 
L 414.72 265.248 
" clip-path="url(#p19ea308ac4)" style="fill: none; stroke: #cccccc; stroke-width: 0.8; stroke-linecap: round"/>
     </g>
     <g id="text_10">
      <!-- $\mathdefault{0.05}$ -->
      <g style="fill: #262626" transform="translate(35.141121 268.292142) scale(0.088 -0.088)">
       <use xlink:href="#LibertinusT1Math-30" transform="scale(0.996264)"/>
       <use xlink:href="#LibertinusT1Math-3a" transform="translate(46.326292 0) scale(0.996264)"/>
       <use xlink:href="#LibertinusT1Math-30" transform="translate(68.244115 0) scale(0.996264)"/>
       <use xlink:href="#LibertinusT1Math-35" transform="translate(114.570407 0) scale(0.996264)"/>
      </g>
     </g>
    </g>
    <g id="ytick_3">
     <g id="line2d_10">
      <path d="M 57.6 235.008 
L 414.72 235.008 
" clip-path="url(#p19ea308ac4)" style="fill: none; stroke: #cccccc; stroke-width: 0.8; stroke-linecap: round"/>
     </g>
     <g id="text_11">
      <!-- $\mathdefault{0.10}$ -->
      <g style="fill: #262626" transform="translate(35.141121 238.052142) scale(0.088 -0.088)">
       <use xlink:href="#LibertinusT1Math-30" transform="scale(0.996264)"/>
       <use xlink:href="#LibertinusT1Math-3a" transform="translate(46.326292 0) scale(0.996264)"/>
       <use xlink:href="#LibertinusT1Math-31" transform="translate(68.244115 0) scale(0.996264)"/>
       <use xlink:href="#LibertinusT1Math-30" transform="translate(114.570407 0) scale(0.996264)"/>
      </g>
     </g>
    </g>
    <g id="ytick_4">
     <g id="line2d_11">
      <path d="M 57.6 204.768 
L 414.72 204.768 
" clip-path="url(#p19ea308ac4)" style="fill: none; stroke: #cccccc; stroke-width: 0.8; stroke-linecap: round"/>
     </g>
     <g id="text_12">
      <!-- $\mathdefault{0.15}$ -->
      <g style="fill: #262626" transform="translate(35.141121 207.812142) scale(0.088 -0.088)">
       <use xlink:href="#LibertinusT1Math-30" transform="scale(0.996264)"/>
       <use xlink:href="#LibertinusT1Math-3a" transform="translate(46.326292 0) scale(0.996264)"/>
       <use xlink:href="#LibertinusT1Math-31" transform="translate(68.244115 0) scale(0.996264)"/>
       <use xlink:href="#LibertinusT1Math-35" transform="translate(114.570407 0) scale(0.996264)"/>
      </g>
     </g>
    </g>
    <g id="ytick_5">
     <g id="line2d_12">
      <path d="M 57.6 174.528 
L 414.72 174.528 
" clip-path="url(#p19ea308ac4)" style="fill: none; stroke: #cccccc; stroke-width: 0.8; stroke-linecap: round"/>
     </g>
     <g id="text_13">
      <!-- $\mathdefault{0.20}$ -->
      <g style="fill: #262626" transform="translate(35.141121 177.572142) scale(0.088 -0.088)">
       <use xlink:href="#LibertinusT1Math-30" transform="scale(0.996264)"/>
       <use xlink:href="#LibertinusT1Math-3a" transform="translate(46.326292 0) scale(0.996264)"/>
       <use xlink:href="#LibertinusT1Math-32" transform="translate(68.244115 0) scale(0.996264)"/>
       <use xlink:href="#LibertinusT1Math-30" transform="translate(114.570407 0) scale(0.996264)"/>
      </g>
     </g>
    </g>
    <g id="ytick_6">
     <g id="line2d_13">
      <path d="M 57.6 144.288 
L 414.72 144.288 
" clip-path="url(#p19ea308ac4)" style="fill: none; stroke: #cccccc; stroke-width: 0.8; stroke-linecap: round"/>
     </g>
     <g id="text_14">
      <!-- $\mathdefault{0.25}$ -->
      <g style="fill: #262626" transform="translate(35.141121 147.332142) scale(0.088 -0.088)">
       <use xlink:href="#LibertinusT1Math-30" transform="scale(0.996264)"/>
       <use xlink:href="#LibertinusT1Math-3a" transform="translate(46.326292 0) scale(0.996264)"/>
       <use xlink:href="#LibertinusT1Math-32" transform="translate(68.244115 0) scale(0.996264)"/>
       <use xlink:href="#LibertinusT1Math-35" transform="translate(114.570407 0) scale(0.996264)"/>
      </g>
     </g>
    </g>
    <g id="ytick_7">
     <g id="line2d_14">
      <path d="M 57.6 114.048 
L 414.72 114.048 
" clip-path="url(#p19ea308ac4)" style="fill: none; stroke: #cccccc; stroke-width: 0.8; stroke-linecap: round"/>
     </g>
     <g id="text_15">
      <!-- $\mathdefault{0.30}$ -->
      <g style="fill: #262626" transform="translate(35.141121 117.092142) scale(0.088 -0.088)">
       <use xlink:href="#LibertinusT1Math-30" transform="scale(0.996264)"/>
       <use xlink:href="#LibertinusT1Math-3a" transform="translate(46.326292 0) scale(0.996264)"/>
       <use xlink:href="#LibertinusT1Math-33" transform="translate(68.244115 0) scale(0.996264)"/>
       <use xlink:href="#LibertinusT1Math-30" transform="translate(114.570407 0) scale(0.996264)"/>
      </g>
     </g>
    </g>
    <g id="ytick_8">
     <g id="line2d_15">
      <path d="M 57.6 83.808 
L 414.72 83.808 
" clip-path="url(#p19ea308ac4)" style="fill: none; stroke: #cccccc; stroke-width: 0.8; stroke-linecap: round"/>
     </g>
     <g id="text_16">
      <!-- $\mathdefault{0.35}$ -->
      <g style="fill: #262626" transform="translate(35.141121 86.852142) scale(0.088 -0.088)">
       <use xlink:href="#LibertinusT1Math-30" transform="scale(0.996264)"/>
       <use xlink:href="#LibertinusT1Math-3a" transform="translate(46.326292 0) scale(0.996264)"/>
       <use xlink:href="#LibertinusT1Math-33" transform="translate(68.244115 0) scale(0.996264)"/>
       <use xlink:href="#LibertinusT1Math-35" transform="translate(114.570407 0) scale(0.996264)"/>
      </g>
     </g>
    </g>
    <g id="ytick_9">
     <g id="line2d_16">
      <path d="M 57.6 53.568 
L 414.72 53.568 
" clip-path="url(#p19ea308ac4)" style="fill: none; stroke: #cccccc; stroke-width: 0.8; stroke-linecap: round"/>
     </g>
     <g id="text_17">
      <!-- $\mathdefault{0.40}$ -->
      <g style="fill: #262626" transform="translate(35.141121 56.612142) scale(0.088 -0.088)">
       <use xlink:href="#LibertinusT1Math-30" transform="scale(0.996264)"/>
       <use xlink:href="#LibertinusT1Math-3a" transform="translate(46.326292 0) scale(0.996264)"/>
       <use xlink:href="#LibertinusT1Math-34" transform="translate(68.244115 0) scale(0.996264)"/>
       <use xlink:href="#LibertinusT1Math-30" transform="translate(114.570407 0) scale(0.996264)"/>
      </g>
     </g>
    </g>
    <g id="text_18">
     <!-- $f_X(x)$ -->
     <g style="fill: #262626" transform="translate(28.927027 185.789199) rotate(-90) scale(0.096 -0.096)">
      <defs>
       <path id="LibertinusT1Math-66" d="M 1114 -1132 
C 1043 -1242 915 -1325 819 -1325 
C 730 -1325 704 -1280 666 -1216 
C 608 -1132 486 -1010 346 -1010 
C 166 -1010 109 -1132 109 -1242 
C 109 -1383 262 -1536 698 -1536 
C 960 -1536 1242 -1408 1440 -1132 
C 1619 -881 1760 -393 2010 830 
C 2112 1331 2214 1852 2310 2393 
L 2330 2502 
L 2925 2502 
C 2982 2502 3078 2527 3091 2579 
C 3091 2579 3123 2713 3123 2719 
C 3123 2739 3110 2752 3078 2752 
L 2374 2752 
L 2445 3118 
C 2541 3600 2630 3889 2720 4063 
C 2816 4243 2899 4294 2976 4294 
C 3072 4294 3085 4236 3110 4114 
C 3136 3979 3187 3812 3392 3812 
C 3578 3812 3622 3960 3622 4018 
C 3622 4262 3411 4480 3027 4480 
C 2893 4480 2720 4409 2592 4307 
C 2387 4140 2118 3895 1875 2752 
L 1453 2732 
C 1338 2726 1286 2675 1274 2623 
C 1267 2604 1248 2527 1248 2515 
C 1248 2502 1261 2502 1280 2502 
L 1818 2502 
C 1664 1769 1638 1383 1555 900 
C 1453 289 1344 -766 1114 -1132 
z
" transform="scale(0.015625)"/>
       <path id="LibertinusT1Math-2e" d="M 275 1753 
C 275 345 947 -660 1978 -1191 
L 2080 -1012 
C 1146 -398 800 466 800 1753 
C 800 3027 1146 3884 2080 4505 
L 1978 4672 
C 947 4147 275 3148 275 1753 
z
" transform="scale(0.015625)"/>
       <path id="LibertinusT1Math-78" d="M 448 422 
C 307 422 205 320 205 179 
C 205 12 429 -64 576 -64 
C 794 -64 947 32 1229 435 
L 1670 1075 
L 1920 294 
C 2003 38 2067 -64 2285 -64 
C 2509 -64 2790 57 2989 390 
C 2963 448 2906 499 2835 512 
C 2669 300 2586 249 2515 249 
C 2458 249 2413 333 2362 487 
L 2016 1520 
L 2502 2239 
C 2605 2387 2758 2412 2803 2412 
C 2854 2412 2938 2393 2995 2348 
C 3040 2310 3142 2284 3206 2284 
C 3296 2284 3411 2412 3411 2559 
C 3411 2719 3238 2816 3091 2816 
C 2771 2816 2560 2707 2246 2252 
L 1926 1790 
L 1747 2355 
C 1638 2694 1568 2822 1408 2822 
C 1261 2822 787 2559 563 2393 
C 570 2323 595 2239 646 2194 
C 723 2226 934 2329 1069 2329 
C 1146 2329 1210 2316 1248 2258 
C 1274 2207 1318 2097 1357 1988 
L 1581 1350 
L 986 468 
C 922 371 851 345 806 345 
C 685 345 576 422 448 422 
z
" transform="scale(0.015625)"/>
       <path id="LibertinusT1Math-2f" d="M 2003 1753 
C 2003 3148 1331 4147 301 4672 
L 198 4505 
C 1133 3884 1478 3027 1478 1753 
C 1478 466 1133 -398 198 -1012 
L 301 -1191 
C 1331 -660 2003 345 2003 1753 
z
" transform="scale(0.015625)"/>
      </defs>
      <use xlink:href="#LibertinusT1Math-66" transform="scale(0.996264)"/>
      <use xlink:href="#LibertinusT1Math-58" transform="translate(40.448325 -17.016389) scale(0.797014)"/>
      <use xlink:href="#LibertinusT1Math-2e" transform="translate(102.794756 0) scale(0.996264)"/>
      <use xlink:href="#LibertinusT1Math-78" transform="translate(138.261746 0) scale(0.996264)"/>
      <use xlink:href="#LibertinusT1Math-2f" transform="translate(194.451045 0) scale(0.996264)"/>
     </g>
    </g>
   </g>
   <g id="LineCollection_1">
    <path d="M 73.832727 295.488 
L 73.832727 53.568 
" clip-path="url(#p19ea308ac4)" style="fill: none; stroke-dasharray: 4.44,1.92; stroke-dashoffset: 0; stroke: #4878d0; stroke-width: 1.2"/>
    <path d="M 182.050909 295.488 
L 182.050909 114.048 
" clip-path="url(#p19ea308ac4)" style="fill: none; stroke-dasharray: 4.44,1.92; stroke-dashoffset: 0; stroke: #4878d0; stroke-width: 1.2"/>
    <path d="M 290.269091 295.488 
L 290.269091 174.528 
" clip-path="url(#p19ea308ac4)" style="fill: none; stroke-dasharray: 4.44,1.92; stroke-dashoffset: 0; stroke: #4878d0; stroke-width: 1.2"/>
    <path d="M 398.487273 295.488 
L 398.487273 235.008 
" clip-path="url(#p19ea308ac4)" style="fill: none; stroke-dasharray: 4.44,1.92; stroke-dashoffset: 0; stroke: #4878d0; stroke-width: 1.2"/>
   </g>
   <g id="line2d_17">
    <defs>
     <path id="m8845b7b00f" d="M 0 2.4 
C 0.636487 2.4 1.246992 2.147121 1.697056 1.697056 
C 2.147121 1.246992 2.4 0.636487 2.4 0 
C 2.4 -0.636487 2.147121 -1.246992 1.697056 -1.697056 
C 1.246992 -2.147121 0.636487 -2.4 0 -2.4 
C -0.636487 -2.4 -1.246992 -2.147121 -1.697056 -1.697056 
C -2.147121 -1.246992 -2.4 -0.636487 -2.4 0 
C -2.4 0.636487 -2.147121 1.246992 -1.697056 1.697056 
C -1.246992 2.147121 -0.636487 2.4 0 2.4 
z
" style="stroke: #4878d0"/>
    </defs>
    <g clip-path="url(#p19ea308ac4)">
     <use xlink:href="#m8845b7b00f" x="73.832727" y="53.568" style="fill: #4878d0; stroke: #4878d0"/>
     <use xlink:href="#m8845b7b00f" x="182.050909" y="114.048" style="fill: #4878d0; stroke: #4878d0"/>
     <use xlink:href="#m8845b7b00f" x="290.269091" y="174.528" style="fill: #4878d0; stroke: #4878d0"/>
     <use xlink:href="#m8845b7b00f" x="398.487273" y="235.008" style="fill: #4878d0; stroke: #4878d0"/>
    </g>
   </g>
   <g id="patch_3">
    <path d="M 57.6 307.584 
L 57.6 41.472 
" style="fill: none; stroke: #cccccc; stroke-linejoin: miter; stroke-linecap: square"/>
   </g>
   <g id="patch_4">
    <path d="M 414.72 307.584 
L 414.72 41.472 
" style="fill: none; stroke: #cccccc; stroke-linejoin: miter; stroke-linecap: square"/>
   </g>
   <g id="patch_5">
    <path d="M 57.6 307.584 
L 414.72 307.584 
" style="fill: none; stroke: #cccccc; stroke-linejoin: miter; stroke-linecap: square"/>
   </g>
   <g id="patch_6">
    <path d="M 57.6 41.472 
L 414.72 41.472 
" style="fill: none; stroke: #cccccc; stroke-linejoin: miter; stroke-linecap: square"/>
   </g>
  </g>
 </g>
 <defs>
  <clipPath id="p19ea308ac4">
   <rect x="57.6" y="41.472" width="357.12" height="266.112"/>
  </clipPath>
 </defs>
</svg>
